<svg width="96" height="88" viewBox="0 0 96 88" fill="none" xmlns="http://www.w3.org/2000/svg">
<path d="M0 25C0 11.1929 11.1929 0 25 0H71C84.8071 0 96 11.1929 96 25V63C96 76.8071 84.8071 88 71 88H0V25Z" fill="black"/>
<path fill-rule="evenodd" clip-rule="evenodd" d="M16 32C17.6569 32 19 33.3431 19 35C19 36.2885 19.1364 37.395 19.3796 38.3397C19.6206 39.2463 19.9511 39.9705 20.3402 40.5507C20.7085 41.0713 21.1032 41.4207 21.5177 41.6588C21.9082 41.8697 22.3805 42 23 42C23.6494 42 24.1281 41.8679 24.5062 41.6673C24.9598 41.396 25.347 41.0318 25.6779 40.5377L25.682 40.5316L25.6861 40.5255C26.0619 39.9703 26.3822 39.2517 26.6035 38.3175L26.6105 38.2879L26.6181 38.2584C26.8652 37.3024 27 36.2213 27 35C27 33.3431 28.3431 32 30 32C31.6569 32 33 33.3431 33 35C33 36.6508 32.819 38.2324 32.4349 39.7302C32.073 41.2445 31.4951 42.6458 30.6589 43.8829C29.8323 45.115 28.7739 46.1242 27.4948 46.8705L27.4611 46.8901L27.4269 46.9089C26.0601 47.6595 24.559 48 23 48C21.4542 48 19.9691 47.6536 18.6128 46.9089L18.5956 46.8995L18.5785 46.8898C17.3074 46.17 16.2544 45.1762 15.4119 43.9731L15.3983 43.9536L15.385 43.934C14.5615 42.7175 13.9697 41.3485 13.5773 39.8673L13.575 39.8585L13.5727 39.8497C13.181 38.3339 13 36.7105 13 35C13 33.3431 14.3431 32 16 32Z" fill="#D5F257"/>
<path fill-rule="evenodd" clip-rule="evenodd" d="M33.1447 54.6424C31.8426 55.6671 31.6177 57.5532 32.6424 58.8552C34.3998 61.0885 36.5944 62.8511 39.1868 64.1385L39.2186 64.1543L39.2509 64.1694C41.9135 65.4139 44.8673 66 48.0501 66C51.1776 66 54.0955 65.4096 56.749 64.1694L56.7652 64.1618L56.7813 64.1541C59.3223 62.9293 61.5065 61.203 63.3166 59.0028C64.3693 57.7233 64.1854 55.8327 62.9059 54.78C61.6264 53.7274 59.7358 53.9113 58.6832 55.1908C57.4187 56.7277 55.9275 57.9021 54.1923 58.7414C52.4324 59.5608 50.4032 60 48.0501 60C45.6261 60 43.5708 59.5592 41.8234 58.7487C40.0134 57.8444 38.5377 56.6446 37.3575 55.1448C36.3328 53.8427 34.4467 53.6178 33.1447 54.6424Z" fill="#D5F257"/>
<path fill-rule="evenodd" clip-rule="evenodd" d="M66 32C67.6569 32 69 33.3431 69 35C69 36.2885 69.1364 37.395 69.3796 38.3397C69.6206 39.2463 69.9511 39.9705 70.3402 40.5507C70.7085 41.0713 71.1032 41.4207 71.5177 41.6588C71.9082 41.8697 72.3805 42 73 42C73.6494 42 74.1281 41.8679 74.5062 41.6673C74.9598 41.396 75.347 41.0318 75.6779 40.5377L75.682 40.5316L75.6861 40.5255C76.0619 39.9703 76.3822 39.2517 76.6035 38.3175L76.6105 38.2879L76.6181 38.2584C76.8652 37.3024 77 36.2213 77 35C77 33.3431 78.3431 32 80 32C81.6569 32 83 33.3431 83 35C83 36.6508 82.819 38.2324 82.4349 39.7302C82.073 41.2445 81.4951 42.6458 80.6589 43.8829C79.8323 45.115 78.7739 46.1242 77.4948 46.8705L77.4611 46.8901L77.4269 46.9089C76.0601 47.6595 74.559 48 73 48C71.4542 48 69.9691 47.6536 68.6128 46.9089L68.5956 46.8995L68.5785 46.8898C67.3074 46.17 66.2544 45.1762 65.4119 43.9731L65.3983 43.9536L65.385 43.934C64.5615 42.7175 63.9697 41.3485 63.5773 39.8673L63.575 39.8585L63.5727 39.8497C63.181 38.3339 63 36.7105 63 35C63 33.3431 64.3431 32 66 32Z" fill="#D5F257"/>
</svg>
