<svg width="96" height="88" viewBox="0 0 96 88" fill="none" xmlns="http://www.w3.org/2000/svg">
<path d="M0 25C0 11.1929 11.1929 0 25 0H71C84.8071 0 96 11.1929 96 25V63C96 76.8071 84.8071 88 71 88H0V25Z" fill="black"/>
<path fill-rule="evenodd" clip-rule="evenodd" d="M62.6124 48.2439L62.6062 48.2238C62.1767 46.8279 62 45.4024 62 44C62 42.6026 62.1801 41.1883 62.6062 39.8033C63.0311 38.422 63.7024 37.0739 64.6946 35.8723C65.6702 34.6729 66.8879 33.6956 68.3204 33.0142L68.3204 33.0142C69.8489 32.2871 71.4431 32 72.9716 32C74.5249 32 76.1507 32.2914 77.7069 33.0405C79.1571 33.7212 80.4123 34.7167 81.4049 35.9877C82.3575 37.1841 83.007 38.52 83.4085 39.9045C83.8247 41.2584 84 42.639 84 44C84 45.3701 83.8224 46.7504 83.4142 48.1028C83.0089 49.5089 82.3483 50.8654 81.3746 52.0772C80.3832 53.3167 79.1547 54.2773 77.7712 54.9553L77.7078 54.9864L77.6438 55.0159C76.1172 55.7201 74.5287 56 73 56C71.4673 56 69.8929 55.7116 68.3846 55.0159L68.3524 55.001L68.3204 54.9858C66.9204 54.3198 65.7097 53.3725 64.7266 52.1933L64.6947 52.155L64.6634 52.1162C63.7186 50.9438 63.0509 49.6344 62.6187 48.2639L62.6124 48.2439ZM76.6932 48.3243C77.1288 47.7838 77.4508 47.1441 77.6591 46.4054C77.8864 45.6667 78 44.8649 78 44C78 43.1351 77.8864 42.3423 77.6591 41.6216C77.4508 40.8829 77.1288 40.2432 76.6932 39.7027C76.2765 39.1622 75.7557 38.7477 75.1307 38.4595C74.5057 38.1532 73.786 38 72.9716 38C72.1951 38 71.5038 38.1441 70.8977 38.4324C70.2917 38.7207 69.7708 39.1351 69.3352 39.6757C68.8996 40.1982 68.5682 40.8288 68.3409 41.5676C68.1136 42.3063 68 43.1171 68 44C68 44.9009 68.1136 45.7207 68.3409 46.4595C68.5682 47.1802 68.8996 47.8108 69.3352 48.3514C69.7708 48.8739 70.2917 49.2793 70.8977 49.5676C71.5227 49.8559 72.2235 50 73 50C73.7955 50 74.5057 49.8559 75.1307 49.5676C75.7557 49.2613 76.2765 48.8468 76.6932 48.3243Z" fill="#D5F257"/>
<path fill-rule="evenodd" clip-rule="evenodd" d="M12.8549 49.8986L12.8494 49.8794C12.2598 47.8388 12 45.6962 12 43.5C12 41.326 12.2628 39.2028 12.8494 37.1724C13.4338 35.1497 14.3384 33.237 15.6487 31.5519C16.9431 29.8528 18.5645 28.4591 20.5048 27.4763L20.5048 27.4763C22.5491 26.4408 24.7446 26 26.9489 26C29.207 26 31.4576 26.4527 33.5454 27.5273C35.5206 28.5103 37.1771 29.9239 38.4701 31.6932C39.743 33.3897 40.6181 35.2979 41.1639 37.3211C41.742 39.3062 42 41.3801 42 43.5C42 45.6293 41.7398 47.7115 41.169 49.7117C40.6194 51.7573 39.7337 53.6858 38.441 55.3973C37.1465 57.1221 35.5158 58.4965 33.6111 59.4904L33.5461 59.5243L33.4803 59.5566C31.4222 60.5675 29.2179 61 27 61C24.7919 61 22.6097 60.5581 20.5708 59.5566L20.5377 59.5404L20.5048 59.5237C18.5981 58.558 16.9827 57.2039 15.6791 55.5388L15.6488 55.5001L15.6191 55.4609C14.3545 53.79 13.4524 51.9161 12.8606 49.9177L12.8549 49.8986ZM35.3864 48.1104C35.7955 46.6944 36 45.1577 36 43.5C36 41.8423 35.7955 40.3228 35.3864 38.9414C35.0114 37.5255 34.4318 36.2995 33.6477 35.2635C32.8977 34.2275 31.9602 33.4332 30.8352 32.8806C29.7102 32.2935 28.4148 32 26.9489 32C25.5511 32 24.3068 32.2763 23.2159 32.8288C22.125 33.3814 21.1875 34.1757 20.4034 35.2117C19.6193 36.2132 19.0227 37.4219 18.6136 38.8378C18.2045 40.2538 18 41.8078 18 43.5C18 45.2267 18.2045 46.798 18.6136 48.214C19.0227 49.5953 19.6193 50.8041 20.4034 51.8401C21.1875 52.8416 22.125 53.6186 23.2159 54.1712C24.3409 54.7237 25.6023 55 27 55C28.4318 55 29.7102 54.7237 30.8352 54.1712C31.9602 53.5841 32.8977 52.7898 33.6477 51.7883C34.4318 50.7523 35.0114 49.5263 35.3864 48.1104Z" fill="#D5F257"/>
</svg>
