<svg width="96" height="88" viewBox="0 0 96 88" fill="none" xmlns="http://www.w3.org/2000/svg">
<path d="M0 25C0 11.1929 11.1929 0 25 0H71C84.8071 0 96 11.1929 96 25V63C96 76.8071 84.8071 88 71 88H0V25Z" fill="black"/>
<path fill-rule="evenodd" clip-rule="evenodd" d="M72 30C75.3137 30 78 32.6863 78 36L78 44C78 47.3137 75.3137 50 72 50C68.6863 50 66 47.3137 66 44L66 36C66 32.6863 68.6863 30 72 30Z" fill="#D5F257"/>
<path fill-rule="evenodd" clip-rule="evenodd" d="M51.4182 49.1911C50.9088 49.3219 50.568 49.4741 50.3476 49.608L50.3325 49.6172L50.3173 49.6262C50.1516 49.7242 50.0964 49.79 50.0883 49.8006C50.0868 49.8025 50.0869 49.8026 50.0883 49.8006C49.1584 51.1719 47.293 51.5298 45.9216 50.6C44.5503 49.6701 44.1924 47.8046 45.1223 46.4333C45.6889 45.5977 46.4315 44.9563 47.2464 44.4716C48.0735 43.9713 48.988 43.6191 49.9419 43.3755L49.95 43.3735L49.9582 43.3714C50.991 43.1138 52.0821 43 53.2105 43C54.4053 43 55.5756 43.1719 56.6786 43.5741C57.735 43.9532 58.7098 44.5094 59.5445 45.2762C60.4125 46.0573 61.0627 47.0078 61.4893 48.0863C61.9345 49.1491 62.1316 50.2746 62.1316 51.4194C62.1316 52.81 61.8554 54.1735 61.1977 55.4127C61.3143 55.5465 61.4265 55.6861 61.5338 55.8318C62.6227 57.2655 63 58.9982 63 60.7056C63 62.0584 62.7608 63.3764 62.2156 64.6044L62.2101 64.6168L62.2045 64.6291C61.6772 65.7885 60.9258 66.7996 59.9614 67.6329L59.9417 67.6499L59.9218 67.6666C58.9609 68.4681 57.8556 69.0463 56.6558 69.4324C55.4382 69.8242 54.1487 70 52.8158 70C51.8703 70 50.9244 69.9065 49.9809 69.7243C49.0158 69.5535 48.0894 69.2784 47.2207 68.879L47.2056 68.8721L47.1905 68.865C46.307 68.4469 45.4897 67.8883 44.8057 67.1546C43.6759 65.9428 43.7424 64.0445 44.9542 62.9146C46.1661 61.7848 48.0644 61.8512 49.1943 63.0631C49.2808 63.1559 49.4422 63.2907 49.7422 63.4345C50.09 63.5926 50.5171 63.7272 51.0423 63.8189L51.0715 63.824L51.1006 63.8297C51.6913 63.9449 52.2622 64 52.8158 64C53.6232 64 54.2812 63.8935 54.8179 63.7208C55.3604 63.5463 55.7582 63.3215 56.0583 63.0758C56.3442 62.8241 56.5672 62.527 56.7371 62.1578C56.8908 61.8065 57 61.3403 57 60.7056C57 59.8289 56.804 59.5236 56.7537 59.4581L56.7293 59.4264L56.7058 59.3942C56.6593 59.3302 56.4887 59.1346 55.9677 58.9355H55C53.3432 58.9355 52 57.5923 52 55.9355C52 54.2786 53.3432 52.9355 55 52.9355H55.6524C55.7407 52.856 55.7969 52.7776 55.8394 52.7028L55.852 52.6806L55.865 52.6587C55.9984 52.433 56.1316 52.0609 56.1316 51.4194C56.1316 50.962 56.0536 50.6353 55.9507 50.394L55.9317 50.3493L55.9141 50.3041C55.817 50.0541 55.6901 49.8784 55.5271 49.7327L55.5082 49.7158L55.4896 49.6987C55.3137 49.536 55.0532 49.3649 54.6479 49.22L54.637 49.2161L54.6262 49.2122C54.2938 49.0904 53.8364 49 53.2105 49C52.4834 49 51.8928 49.0735 51.4182 49.1911Z" fill="#D5F257"/>
<path fill-rule="evenodd" clip-rule="evenodd" d="M24 30C27.3137 30 30 32.6863 30 36L30 44C30 47.3137 27.3137 50 24 50C20.6863 50 18 47.3137 18 44L18 36C18 32.6863 20.6863 30 24 30Z" fill="#D5F257"/>
</svg>
