<svg width="96" height="88" viewBox="0 0 96 88" fill="none" xmlns="http://www.w3.org/2000/svg">
<path d="M0 25C0 11.1929 11.1929 0 25 0H71C84.8071 0 96 11.1929 96 25V63C96 76.8071 84.8071 88 71 88H0V25Z" fill="#8B44EF"/>
<path fill-rule="evenodd" clip-rule="evenodd" d="M62.8553 54.6424C64.1574 55.6671 64.3823 57.5532 63.3576 58.8552C61.6002 61.0885 59.4056 62.8511 56.8132 64.1385L56.7814 64.1543L56.7491 64.1694C54.0865 65.4139 51.1327 66 47.9499 66C44.8224 66 41.9045 65.4096 39.251 64.1694L39.2348 64.1618L39.2187 64.1541C36.6777 62.9293 34.4935 61.203 32.6834 59.0028C31.6307 57.7233 31.8146 55.8327 33.0941 54.78C34.3736 53.7274 36.2642 53.9113 37.3168 55.1908C38.5813 56.7277 40.0725 57.9021 41.8077 58.7414C43.5676 59.5608 45.5968 60 47.9499 60C50.3739 60 52.4292 59.5592 54.1766 58.7487C55.9866 57.8444 57.4623 56.6446 58.6425 55.1448C59.6672 53.8427 61.5533 53.6178 62.8553 54.6424Z" fill="white"/>
<path fill-rule="evenodd" clip-rule="evenodd" d="M17.1908 47.0534C16.6091 45.5021 17.3951 43.7728 18.9465 43.1911L27.4558 40L18.9465 36.809C17.3951 36.2273 16.6091 34.498 17.1908 32.9467C17.7726 31.3953 19.5018 30.6093 21.0532 31.1911L34.5563 36.2547C38.017 37.5525 38.017 42.4476 34.5563 43.7454L21.0532 48.809C19.5018 49.3908 17.7726 48.6048 17.1908 47.0534Z" fill="white"/>
<path fill-rule="evenodd" clip-rule="evenodd" d="M72 30C75.3137 30 78 32.6863 78 36L78 44C78 47.3137 75.3137 50 72 50C68.6863 50 66 47.3137 66 44L66 36C66 32.6863 68.6863 30 72 30Z" fill="white"/>
</svg>
