<svg width="554" height="97" viewBox="0 0 554 97" fill="none" xmlns="http://www.w3.org/2000/svg">
<path d="M0 25C0 11.1929 11.1929 0 25 0H71C84.8071 0 96 11.1929 96 25V63C96 76.8071 84.8071 88 71 88H0V25Z" fill="#8B44EF"/>
<path fill-rule="evenodd" clip-rule="evenodd" d="M62.8553 54.6424C64.1574 55.6671 64.3823 57.5532 63.3576 58.8552C61.6002 61.0885 59.4056 62.8511 56.8132 64.1385L56.7814 64.1543L56.7491 64.1694C54.0865 65.4139 51.1327 66 47.9499 66C44.8224 66 41.9045 65.4096 39.251 64.1694L39.2348 64.1618L39.2187 64.1541C36.6777 62.9293 34.4935 61.203 32.6834 59.0028C31.6307 57.7233 31.8146 55.8327 33.0941 54.78C34.3736 53.7274 36.2642 53.9113 37.3168 55.1908C38.5813 56.7277 40.0725 57.9021 41.8077 58.7414C43.5676 59.5608 45.5968 60 47.9499 60C50.3739 60 52.4292 59.5592 54.1766 58.7487C55.9866 57.8444 57.4623 56.6446 58.6425 55.1448C59.6672 53.8427 61.5533 53.6178 62.8553 54.6424Z" fill="white"/>
<path fill-rule="evenodd" clip-rule="evenodd" d="M17.1908 47.0534C16.6091 45.5021 17.3951 43.7728 18.9465 43.1911L27.4558 40L18.9465 36.809C17.3951 36.2273 16.6091 34.498 17.1908 32.9467C17.7726 31.3953 19.5018 30.6093 21.0532 31.1911L34.5563 36.2547C38.017 37.5525 38.017 42.4476 34.5563 43.7454L21.0532 48.809C19.5018 49.3908 17.7726 48.6048 17.1908 47.0534Z" fill="white"/>
<path fill-rule="evenodd" clip-rule="evenodd" d="M72 30C75.3137 30 78 32.6863 78 36L78 44C78 47.3137 75.3137 50 72 50C68.6863 50 66 47.3137 66 44L66 36C66 32.6863 68.6863 30 72 30Z" fill="white"/>
<path d="M135.76 8.636C138.112 8.636 140.007 9.35467 141.444 10.792C142.947 12.2293 143.698 14.222 143.698 16.77V36.468L165.356 12.948C166.859 11.3147 168.133 10.204 169.178 9.61601C170.224 8.96267 171.498 8.636 173 8.636C173.915 8.636 174.83 8.86467 175.744 9.32201C176.724 9.71401 177.574 10.2693 178.292 10.988C179.076 11.7067 179.697 12.5233 180.154 13.438C180.677 14.3527 180.938 15.3 180.938 16.28C180.938 17.456 180.579 18.632 179.86 19.808C179.207 20.984 178.521 21.9313 177.802 22.65L158.888 41.662L181.428 66.162C183.127 67.9913 183.976 69.8533 183.976 71.748C183.976 74.0347 183.192 75.9293 181.624 77.432C180.056 78.8693 178.064 79.588 175.646 79.588C175.124 79.588 174.568 79.5227 173.98 79.392C173.392 79.3267 172.739 79.098 172.02 78.706C171.302 78.2487 170.42 77.5627 169.374 76.648C168.394 75.7333 167.218 74.492 165.846 72.924L143.698 48.032V71.454C143.698 74.002 142.947 75.9947 141.444 77.432C140.007 78.8693 138.112 79.588 135.76 79.588C133.408 79.588 131.481 78.8693 129.978 77.432C128.541 75.9947 127.822 74.002 127.822 71.454V16.77C127.822 14.222 128.541 12.2293 129.978 10.792C131.481 9.35467 133.408 8.636 135.76 8.636Z" fill="url(#paint0_linear_641_200)"/>
<path d="M222.358 7.65601C227.52 7.65601 232.191 8.53801 236.372 10.302C240.619 12.0007 244.245 14.4507 247.25 17.652C250.256 20.788 252.575 24.61 254.208 29.118C255.842 33.5607 256.658 38.5587 256.658 44.112C256.658 49.5347 255.842 54.5 254.208 59.008C252.64 63.4507 250.354 67.2727 247.348 70.474C244.408 73.6753 240.815 76.158 236.568 77.922C232.387 79.686 227.65 80.568 222.358 80.568C217.197 80.568 212.493 79.7187 208.246 78.02C204.065 76.256 200.472 73.7733 197.466 70.572C194.461 67.3707 192.142 63.5487 190.508 59.106C188.875 54.598 188.058 49.6 188.058 44.112C188.058 38.5587 188.875 33.528 190.508 29.02C192.142 24.512 194.461 20.69 197.466 17.554C200.472 14.3527 204.065 11.9027 208.246 10.204C212.493 8.50534 217.197 7.65601 222.358 7.65601ZM205.11 44.112C205.11 47.3787 205.502 50.3513 206.286 53.03C207.07 55.6433 208.214 57.93 209.716 59.89C211.219 61.7847 213.016 63.2547 215.106 64.3C217.262 65.3453 219.68 65.868 222.358 65.868C225.102 65.868 227.552 65.3453 229.708 64.3C231.864 63.1893 233.661 61.6867 235.098 59.792C236.601 57.832 237.712 55.5127 238.43 52.834C239.214 50.1553 239.606 47.248 239.606 44.112C239.606 40.976 239.214 38.1013 238.43 35.488C237.712 32.8093 236.601 30.49 235.098 28.53C233.661 26.57 231.864 25.0673 229.708 24.022C227.552 22.9113 225.07 22.356 222.26 22.356C219.582 22.356 217.197 22.8787 215.106 23.924C213.016 24.9693 211.219 26.472 209.716 28.432C208.214 30.3267 207.07 32.6133 206.286 35.292C205.502 37.9707 205.11 40.9107 205.11 44.112Z" fill="url(#paint1_linear_641_200)"/>
<path d="M316.878 9.22401C319.296 9.22401 321.256 9.97534 322.758 11.478C324.326 12.9153 325.11 14.7447 325.11 16.966V64.3H328.638C331.121 64.3 333.048 64.986 334.42 66.358C335.792 67.6647 336.478 69.3307 336.478 71.356V88.408C336.478 90.6293 335.825 92.4587 334.518 93.896C333.277 95.3333 331.48 96.052 329.128 96.052C326.907 96.052 325.11 95.3333 323.738 93.896C322.432 92.524 321.778 90.6947 321.778 88.408V79H272.68V88.31C272.68 90.5967 272.027 92.4587 270.72 93.896C269.479 95.3333 267.682 96.052 265.33 96.052C263.109 96.052 261.312 95.3333 259.94 93.896C258.634 92.524 257.98 90.6947 257.98 88.408V71.356C257.98 69.4613 258.666 67.828 260.038 66.456C261.41 65.0187 263.501 64.3 266.31 64.3H267.094C268.009 62.7973 268.826 60.9027 269.544 58.616C270.328 56.264 270.982 53.324 271.504 49.796L276.404 17.652C276.927 14.516 277.907 12.3273 279.344 11.086C280.782 9.84468 282.546 9.22401 284.636 9.22401H316.878ZM291.496 23.924L287.282 51.56C286.956 53.324 286.498 55.4147 285.91 57.832C285.388 60.2493 284.702 62.4053 283.852 64.3H309.234V23.924H291.496Z" fill="url(#paint2_linear_641_200)"/>
<path d="M403.878 9.22401C406.296 9.22401 408.256 9.97534 409.758 11.478C411.326 12.9153 412.11 14.7447 412.11 16.966V64.3H415.638C418.121 64.3 420.048 64.986 421.42 66.358C422.792 67.6647 423.478 69.3307 423.478 71.356V88.408C423.478 90.6293 422.825 92.4587 421.518 93.896C420.277 95.3333 418.48 96.052 416.128 96.052C413.907 96.052 412.11 95.3333 410.738 93.896C409.432 92.524 408.778 90.6947 408.778 88.408V79H359.68V88.31C359.68 90.5967 359.027 92.4587 357.72 93.896C356.479 95.3333 354.682 96.052 352.33 96.052C350.109 96.052 348.312 95.3333 346.94 93.896C345.634 92.524 344.98 90.6947 344.98 88.408V71.356C344.98 69.4613 345.666 67.828 347.038 66.456C348.41 65.0187 350.501 64.3 353.31 64.3H354.094C355.009 62.7973 355.826 60.9027 356.544 58.616C357.328 56.264 357.982 53.324 358.504 49.796L363.404 17.652C363.927 14.516 364.907 12.3273 366.344 11.086C367.782 9.84468 369.546 9.22401 371.636 9.22401H403.878ZM378.496 23.924L374.282 51.56C373.956 53.324 373.498 55.4147 372.91 57.832C372.388 60.2493 371.702 62.4053 370.852 64.3H396.234V23.924H378.496Z" fill="url(#paint3_linear_641_200)"/>
<path d="M440.76 8.636C443.112 8.636 445.007 9.35467 446.444 10.792C447.947 12.2293 448.698 14.222 448.698 16.77V50.188H448.894L478.196 13.536C479.503 11.9027 480.712 10.694 481.822 9.91001C482.998 9.06067 484.468 8.636 486.232 8.636C488.584 8.636 490.479 9.35467 491.916 10.792C493.419 12.2293 494.17 14.222 494.17 16.77V71.454C494.17 74.002 493.419 75.9947 491.916 77.432C490.479 78.8693 488.584 79.588 486.232 79.588C483.88 79.588 481.953 78.8693 480.45 77.432C479.013 75.9947 478.294 74.002 478.294 71.454V38.036H478.098L449.678 73.61C447.98 75.766 446.477 77.3013 445.17 78.216C443.929 79.1307 442.459 79.588 440.76 79.588C438.408 79.588 436.481 78.902 434.978 77.53C433.541 76.0927 432.822 74.002 432.822 71.258V16.77C432.822 14.222 433.541 12.2293 434.978 10.792C436.481 9.35467 438.408 8.636 440.76 8.636Z" fill="url(#paint4_linear_641_200)"/>
<path d="M545.278 9.22401C547.696 9.22401 549.623 9.87734 551.06 11.184C552.498 12.4907 553.216 14.2873 553.216 16.574C553.216 18.8607 552.498 20.6573 551.06 21.964C549.623 23.2707 547.696 23.924 545.278 23.924H536.066V71.454C536.066 74.002 535.315 75.9947 533.812 77.432C532.375 78.8693 530.48 79.588 528.128 79.588C525.776 79.588 523.849 78.8693 522.346 77.432C520.909 75.9947 520.19 74.002 520.19 71.454V23.924H510.978C508.561 23.924 506.634 23.2707 505.196 21.964C503.759 20.6573 503.04 18.8607 503.04 16.574C503.04 14.2873 503.759 12.4907 505.196 11.184C506.634 9.87734 508.561 9.22401 510.978 9.22401H545.278Z" fill="url(#paint5_linear_641_200)"/>
<defs>
<linearGradient id="paint0_linear_641_200" x1="1.64672" y1="109.556" x2="123.353" y2="-209.534" gradientUnits="userSpaceOnUse">
<stop stop-color="#5C27FE"/>
<stop offset="1" stop-color="#C165DD"/>
</linearGradient>
<linearGradient id="paint1_linear_641_200" x1="1.64672" y1="109.556" x2="123.353" y2="-209.534" gradientUnits="userSpaceOnUse">
<stop stop-color="#5C27FE"/>
<stop offset="1" stop-color="#C165DD"/>
</linearGradient>
<linearGradient id="paint2_linear_641_200" x1="1.64672" y1="109.556" x2="123.353" y2="-209.534" gradientUnits="userSpaceOnUse">
<stop stop-color="#5C27FE"/>
<stop offset="1" stop-color="#C165DD"/>
</linearGradient>
<linearGradient id="paint3_linear_641_200" x1="1.64672" y1="109.556" x2="123.353" y2="-209.534" gradientUnits="userSpaceOnUse">
<stop stop-color="#5C27FE"/>
<stop offset="1" stop-color="#C165DD"/>
</linearGradient>
<linearGradient id="paint4_linear_641_200" x1="1.64672" y1="109.556" x2="123.353" y2="-209.534" gradientUnits="userSpaceOnUse">
<stop stop-color="#5C27FE"/>
<stop offset="1" stop-color="#C165DD"/>
</linearGradient>
<linearGradient id="paint5_linear_641_200" x1="1.64672" y1="109.556" x2="123.353" y2="-209.534" gradientUnits="userSpaceOnUse">
<stop stop-color="#5C27FE"/>
<stop offset="1" stop-color="#C165DD"/>
</linearGradient>
</defs>
</svg>
