<svg width="426" height="89" viewBox="0 0 426 89" fill="none" xmlns="http://www.w3.org/2000/svg">
<path d="M7.938 0.979999C10.29 0.979999 12.1847 1.69867 13.622 3.136C15.1247 4.57333 15.876 6.566 15.876 9.114V28.812L37.534 5.292C39.0367 3.65867 40.3107 2.548 41.356 1.96C42.4013 1.30667 43.6753 0.979999 45.178 0.979999C46.0927 0.979999 47.0073 1.20867 47.922 1.666C48.902 2.058 49.7513 2.61333 50.47 3.332C51.254 4.05067 51.8747 4.86733 52.332 5.782C52.8547 6.69667 53.116 7.644 53.116 8.624C53.116 9.8 52.7567 10.976 52.038 12.152C51.3847 13.328 50.6987 14.2753 49.98 14.994L31.066 34.006L53.606 58.506C55.3047 60.3353 56.154 62.1973 56.154 64.092C56.154 66.3787 55.37 68.2733 53.802 69.776C52.234 71.2133 50.2413 71.932 47.824 71.932C47.3013 71.932 46.746 71.8667 46.158 71.736C45.57 71.6707 44.9167 71.442 44.198 71.05C43.4793 70.5927 42.5973 69.9067 41.552 68.992C40.572 68.0773 39.396 66.836 38.024 65.268L15.876 40.376V63.798C15.876 66.346 15.1247 68.3387 13.622 69.776C12.1847 71.2133 10.29 71.932 7.938 71.932C5.586 71.932 3.65867 71.2133 2.156 69.776C0.718667 68.3387 0 66.346 0 63.798V9.114C0 6.566 0.718667 4.57333 2.156 3.136C3.65867 1.69867 5.586 0.979999 7.938 0.979999Z" fill="url(#paint0_linear_641_207)"/>
<path d="M94.536 0C99.6973 0 104.369 0.882 108.55 2.646C112.797 4.34467 116.423 6.79467 119.428 9.996C122.433 13.132 124.753 16.954 126.386 21.462C128.019 25.9047 128.836 30.9027 128.836 36.456C128.836 41.8787 128.019 46.844 126.386 51.352C124.818 55.7947 122.531 59.6167 119.526 62.818C116.586 66.0193 112.993 68.502 108.746 70.266C104.565 72.03 99.828 72.912 94.536 72.912C89.3747 72.912 84.6707 72.0627 80.424 70.364C76.2427 68.6 72.6493 66.1173 69.644 62.916C66.6387 59.7147 64.3193 55.8927 62.686 51.45C61.0527 46.942 60.236 41.944 60.236 36.456C60.236 30.9027 61.0527 25.872 62.686 21.364C64.3193 16.856 66.6387 13.034 69.644 9.898C72.6493 6.69667 76.2427 4.24667 80.424 2.548C84.6707 0.849334 89.3747 0 94.536 0ZM77.288 36.456C77.288 39.7227 77.68 42.6953 78.464 45.374C79.248 47.9873 80.3913 50.274 81.894 52.234C83.3967 54.1287 85.1933 55.5987 87.284 56.644C89.44 57.6893 91.8573 58.212 94.536 58.212C97.28 58.212 99.73 57.6893 101.886 56.644C104.042 55.5333 105.839 54.0307 107.276 52.136C108.779 50.176 109.889 47.8567 110.608 45.178C111.392 42.4993 111.784 39.592 111.784 36.456C111.784 33.32 111.392 30.4453 110.608 27.832C109.889 25.1533 108.779 22.834 107.276 20.874C105.839 18.914 104.042 17.4113 101.886 16.366C99.73 15.2553 97.2473 14.7 94.438 14.7C91.7593 14.7 89.3747 15.2227 87.284 16.268C85.1933 17.3133 83.3967 18.816 81.894 20.776C80.3913 22.6707 79.248 24.9573 78.464 27.636C77.68 30.3147 77.288 33.2547 77.288 36.456Z" fill="url(#paint1_linear_641_207)"/>
<path d="M189.056 1.568C191.473 1.568 193.433 2.31934 194.936 3.822C196.504 5.25933 197.288 7.08867 197.288 9.31V56.644H200.816C203.299 56.644 205.226 57.33 206.598 58.702C207.97 60.0087 208.656 61.6747 208.656 63.7V80.752C208.656 82.9733 208.003 84.8027 206.696 86.24C205.455 87.6773 203.658 88.396 201.306 88.396C199.085 88.396 197.288 87.6773 195.916 86.24C194.609 84.868 193.956 83.0387 193.956 80.752V71.344H144.858V80.654C144.858 82.9407 144.205 84.8027 142.898 86.24C141.657 87.6773 139.86 88.396 137.508 88.396C135.287 88.396 133.49 87.6773 132.118 86.24C130.811 84.868 130.158 83.0387 130.158 80.752V63.7C130.158 61.8053 130.844 60.172 132.216 58.8C133.588 57.3627 135.679 56.644 138.488 56.644H139.272C140.187 55.1413 141.003 53.2467 141.722 50.96C142.506 48.608 143.159 45.668 143.682 42.14L148.582 9.996C149.105 6.86 150.085 4.67134 151.522 3.43C152.959 2.18867 154.723 1.568 156.814 1.568H189.056ZM163.674 16.268L159.46 43.904C159.133 45.668 158.676 47.7587 158.088 50.176C157.565 52.5933 156.879 54.7493 156.03 56.644H181.412V16.268H163.674Z" fill="url(#paint2_linear_641_207)"/>
<path d="M276.056 1.568C278.473 1.568 280.433 2.31934 281.936 3.822C283.504 5.25933 284.288 7.08867 284.288 9.31V56.644H287.816C290.299 56.644 292.226 57.33 293.598 58.702C294.97 60.0087 295.656 61.6747 295.656 63.7V80.752C295.656 82.9733 295.003 84.8027 293.696 86.24C292.455 87.6773 290.658 88.396 288.306 88.396C286.085 88.396 284.288 87.6773 282.916 86.24C281.609 84.868 280.956 83.0387 280.956 80.752V71.344H231.858V80.654C231.858 82.9407 231.205 84.8027 229.898 86.24C228.657 87.6773 226.86 88.396 224.508 88.396C222.287 88.396 220.49 87.6773 219.118 86.24C217.811 84.868 217.158 83.0387 217.158 80.752V63.7C217.158 61.8053 217.844 60.172 219.216 58.8C220.588 57.3627 222.679 56.644 225.488 56.644H226.272C227.187 55.1413 228.003 53.2467 228.722 50.96C229.506 48.608 230.159 45.668 230.682 42.14L235.582 9.996C236.105 6.86 237.085 4.67134 238.522 3.43C239.959 2.18867 241.723 1.568 243.814 1.568H276.056ZM250.674 16.268L246.46 43.904C246.133 45.668 245.676 47.7587 245.088 50.176C244.565 52.5933 243.879 54.7493 243.03 56.644H268.412V16.268H250.674Z" fill="url(#paint3_linear_641_207)"/>
<path d="M312.938 0.979999C315.29 0.979999 317.185 1.69867 318.622 3.136C320.125 4.57333 320.876 6.566 320.876 9.114V42.532H321.072L350.374 5.88C351.681 4.24667 352.889 3.038 354 2.254C355.176 1.40467 356.646 0.979999 358.41 0.979999C360.762 0.979999 362.657 1.69867 364.094 3.136C365.597 4.57333 366.348 6.566 366.348 9.114V63.798C366.348 66.346 365.597 68.3387 364.094 69.776C362.657 71.2133 360.762 71.932 358.41 71.932C356.058 71.932 354.131 71.2133 352.628 69.776C351.191 68.3387 350.472 66.346 350.472 63.798V30.38H350.276L321.856 65.954C320.157 68.11 318.655 69.6453 317.348 70.56C316.107 71.4747 314.637 71.932 312.938 71.932C310.586 71.932 308.659 71.246 307.156 69.874C305.719 68.4367 305 66.346 305 63.602V9.114C305 6.566 305.719 4.57333 307.156 3.136C308.659 1.69867 310.586 0.979999 312.938 0.979999Z" fill="url(#paint4_linear_641_207)"/>
<path d="M417.456 1.568C419.873 1.568 421.801 2.22134 423.238 3.528C424.675 4.83467 425.394 6.63133 425.394 8.918C425.394 11.2047 424.675 13.0013 423.238 14.308C421.801 15.6147 419.873 16.268 417.456 16.268H408.244V63.798C408.244 66.346 407.493 68.3387 405.99 69.776C404.553 71.2133 402.658 71.932 400.306 71.932C397.954 71.932 396.027 71.2133 394.524 69.776C393.087 68.3387 392.368 66.346 392.368 63.798V16.268H383.156C380.739 16.268 378.811 15.6147 377.374 14.308C375.937 13.0013 375.218 11.2047 375.218 8.918C375.218 6.63133 375.937 4.83467 377.374 3.528C378.811 2.22134 380.739 1.568 383.156 1.568H417.456Z" fill="url(#paint5_linear_641_207)"/>
<defs>
<linearGradient id="paint0_linear_641_207" x1="-126.176" y1="101.9" x2="-4.46878" y2="-217.19" gradientUnits="userSpaceOnUse">
<stop stop-color="#5C27FE"/>
<stop offset="1" stop-color="#C165DD"/>
</linearGradient>
<linearGradient id="paint1_linear_641_207" x1="-126.176" y1="101.9" x2="-4.46878" y2="-217.19" gradientUnits="userSpaceOnUse">
<stop stop-color="#5C27FE"/>
<stop offset="1" stop-color="#C165DD"/>
</linearGradient>
<linearGradient id="paint2_linear_641_207" x1="-126.176" y1="101.9" x2="-4.46878" y2="-217.19" gradientUnits="userSpaceOnUse">
<stop stop-color="#5C27FE"/>
<stop offset="1" stop-color="#C165DD"/>
</linearGradient>
<linearGradient id="paint3_linear_641_207" x1="-126.176" y1="101.9" x2="-4.46878" y2="-217.19" gradientUnits="userSpaceOnUse">
<stop stop-color="#5C27FE"/>
<stop offset="1" stop-color="#C165DD"/>
</linearGradient>
<linearGradient id="paint4_linear_641_207" x1="-126.176" y1="101.9" x2="-4.46878" y2="-217.19" gradientUnits="userSpaceOnUse">
<stop stop-color="#5C27FE"/>
<stop offset="1" stop-color="#C165DD"/>
</linearGradient>
<linearGradient id="paint5_linear_641_207" x1="-126.176" y1="101.9" x2="-4.46878" y2="-217.19" gradientUnits="userSpaceOnUse">
<stop stop-color="#5C27FE"/>
<stop offset="1" stop-color="#C165DD"/>
</linearGradient>
</defs>
</svg>
