<svg width="96" height="88" viewBox="0 0 96 88" fill="none" xmlns="http://www.w3.org/2000/svg">
<path d="M0 25C0 11.1929 11.1929 0 25 0H71C84.8071 0 96 11.1929 96 25V63C96 76.8071 84.8071 88 71 88H0V25Z" fill="black"/>
<path fill-rule="evenodd" clip-rule="evenodd" d="M72 30C75.3137 30 78 32.6863 78 36L78 44C78 47.3137 75.3137 50 72 50C68.6863 50 66 47.3137 66 44L66 36C66 32.6863 68.6863 30 72 30Z" fill="#D5F257"/>
<path fill-rule="evenodd" clip-rule="evenodd" d="M24 30C27.3137 30 30 32.6863 30 36L30 44C30 47.3137 27.3137 50 24 50C20.6863 50 18 47.3137 18 44L18 36C18 32.6863 20.6863 30 24 30Z" fill="#D5F257"/>
</svg>
