<svg width="96" height="88" viewBox="0 0 96 88" fill="none" xmlns="http://www.w3.org/2000/svg">
<path d="M0 25C0 11.1929 11.1929 0 25 0H71C84.8071 0 96 11.1929 96 25V63C96 76.8071 84.8071 88 71 88H0V25Z" fill="black"/>
<path fill-rule="evenodd" clip-rule="evenodd" d="M16 47C17.6569 47 19 45.6569 19 44C19 42.7115 19.1364 41.605 19.3796 40.6603C19.6206 39.7537 19.9511 39.0295 20.3402 38.4493C20.7085 37.9287 21.1032 37.5793 21.5177 37.3412C21.9082 37.1303 22.3805 37 23 37C23.6494 37 24.1281 37.1321 24.5062 37.3327C24.9598 37.604 25.347 37.9682 25.6779 38.4623L25.682 38.4684L25.6861 38.4745C26.0619 39.0297 26.3822 39.7483 26.6035 40.6825L26.6105 40.7121L26.6181 40.7416C26.8652 41.6976 27 42.7787 27 44C27 45.6569 28.3431 47 30 47C31.6569 47 33 45.6569 33 44C33 42.3492 32.819 40.7676 32.4349 39.2698C32.073 37.7555 31.4951 36.3542 30.6589 35.1171C29.8323 33.885 28.7739 32.8758 27.4948 32.1295L27.4611 32.1099L27.4269 32.0911C26.0601 31.3405 24.559 31 23 31C21.4542 31 19.9691 31.3464 18.6128 32.0911L18.5956 32.1005L18.5785 32.1102C17.3074 32.83 16.2544 33.8238 15.4119 35.0269L15.3983 35.0464L15.385 35.066C14.5615 36.2825 13.9697 37.6515 13.5773 39.1327L13.575 39.1415L13.5727 39.1503C13.181 40.6661 13 42.2895 13 44C13 45.6569 14.3431 47 16 47Z" fill="#D5F257"/>
<path fill-rule="evenodd" clip-rule="evenodd" d="M33.1447 59.3576C31.8426 58.3329 31.6177 56.4468 32.6424 55.1448C34.3998 52.9115 36.5944 51.1489 39.1868 49.8615L39.2186 49.8457L39.2509 49.8306C41.9135 48.5861 44.8673 48 48.0501 48C51.1776 48 54.0955 48.5904 56.749 49.8306L56.7652 49.8382L56.7813 49.8459C59.3223 51.0707 61.5065 52.797 63.3166 54.9972C64.3693 56.2767 64.1854 58.1673 62.9059 59.22C61.6264 60.2726 59.7358 60.0887 58.6832 58.8092C57.4187 57.2723 55.9275 56.0979 54.1923 55.2586C52.4324 54.4392 50.4032 54 48.0501 54C45.6261 54 43.5708 54.4408 41.8234 55.2513C40.0134 56.1556 38.5377 57.3554 37.3575 58.8552C36.3328 60.1573 34.4467 60.3822 33.1447 59.3576Z" fill="#D5F257"/>
<path fill-rule="evenodd" clip-rule="evenodd" d="M66 47C67.6569 47 69 45.6569 69 44C69 42.7115 69.1364 41.605 69.3796 40.6603C69.6206 39.7537 69.9511 39.0295 70.3402 38.4493C70.7085 37.9287 71.1032 37.5793 71.5177 37.3412C71.9082 37.1303 72.3805 37 73 37C73.6494 37 74.1281 37.1321 74.5062 37.3327C74.9598 37.604 75.347 37.9682 75.6779 38.4623L75.682 38.4684L75.6861 38.4745C76.0619 39.0297 76.3822 39.7483 76.6035 40.6825L76.6105 40.7121L76.6181 40.7416C76.8652 41.6976 77 42.7787 77 44C77 45.6569 78.3431 47 80 47C81.6569 47 83 45.6569 83 44C83 42.3492 82.819 40.7676 82.4349 39.2698C82.073 37.7555 81.4951 36.3542 80.6589 35.1171C79.8323 33.885 78.7739 32.8758 77.4948 32.1295L77.4611 32.1099L77.4269 32.0911C76.0601 31.3405 74.559 31 73 31C71.4542 31 69.9691 31.3464 68.6128 32.0911L68.5956 32.1005L68.5785 32.1102C67.3074 32.83 66.2544 33.8238 65.4119 35.0269L65.3983 35.0464L65.385 35.066C64.5615 36.2825 63.9697 37.6515 63.5773 39.1327L63.575 39.1415L63.5727 39.1503C63.181 40.6661 63 42.2895 63 44C63 45.6569 64.3431 47 66 47Z" fill="#D5F257"/>
</svg>
