<svg width="96" height="88" viewBox="0 0 96 88" fill="none" xmlns="http://www.w3.org/2000/svg">
<path d="M0 25C0 11.1929 11.1929 0 25 0H71C84.8071 0 96 11.1929 96 25V63C96 76.8071 84.8071 88 71 88H0V25Z" fill="black"/>
<path fill-rule="evenodd" clip-rule="evenodd" d="M33.1447 65.3576C31.8426 64.3329 31.6177 62.4468 32.6424 61.1448C34.3998 58.9115 36.5944 57.1489 39.1868 55.8615L39.2186 55.8457L39.2509 55.8306C41.9135 54.5861 44.8673 54 48.0501 54C51.1776 54 54.0955 54.5904 56.749 55.8306L56.7652 55.8382L56.7813 55.8459C59.3223 57.0707 61.5065 58.797 63.3166 60.9972C64.3693 62.2767 64.1854 64.1673 62.9059 65.22C61.6264 66.2726 59.7358 66.0887 58.6832 64.8092C57.4187 63.2723 55.9275 62.0979 54.1923 61.2586C52.4324 60.4392 50.4032 60 48.0501 60C45.6261 60 43.5708 60.4408 41.8234 61.2513C40.0134 62.1556 38.5377 63.3554 37.3575 64.8552C36.3328 66.1573 34.4467 66.3822 33.1447 65.3576Z" fill="#D5F257"/>
<path fill-rule="evenodd" clip-rule="evenodd" d="M35 40C35 41.6569 33.6569 43 32 43H16C14.3431 43 13 41.6569 13 40C13 38.3431 14.3431 37 16 37H32C33.6569 37 35 38.3431 35 40Z" fill="#D5F257"/>
<path fill-rule="evenodd" clip-rule="evenodd" d="M83 40C83 41.6569 81.6569 43 80 43H64C62.3431 43 61 41.6569 61 40C61 38.3431 62.3431 37 64 37H80C81.6569 37 83 38.3431 83 40Z" fill="#D5F257"/>
</svg>
