<svg width="96" height="88" viewBox="0 0 96 88" fill="none" xmlns="http://www.w3.org/2000/svg">
<path d="M0 25C0 11.1929 11.1929 0 25 0H71C84.8071 0 96 11.1929 96 25V63C96 76.8071 84.8071 88 71 88H0V25Z" fill="black"/>
<path fill-rule="evenodd" clip-rule="evenodd" d="M33.8549 61.8986L33.8494 61.8794C33.2598 59.8388 33 57.6962 33 55.5C33 53.326 33.2628 51.2028 33.8494 49.1724C34.4338 47.1497 35.3384 45.237 36.6487 43.5519C37.9431 41.8528 39.5645 40.4591 41.5048 39.4763L41.5048 39.4763C43.5491 38.4408 45.7446 38 47.9489 38C50.207 38 52.4576 38.4527 54.5454 39.5273C56.5206 40.5103 58.1771 41.9239 59.4701 43.6932C60.743 45.3897 61.6181 47.2979 62.1639 49.3211C62.742 51.3062 63 53.3801 63 55.5C63 57.6293 62.7398 59.7115 62.169 61.7117C61.6194 63.7573 60.7337 65.6858 59.441 67.3973C58.1465 69.1221 56.5158 70.4965 54.6111 71.4904L54.5461 71.5243L54.4803 71.5566C52.4222 72.5675 50.2179 73 48 73C45.7919 73 43.6097 72.5581 41.5708 71.5566L41.5377 71.5404L41.5048 71.5237C39.5981 70.558 37.9827 69.2039 36.6791 67.5388L36.6488 67.5001L36.6191 67.4609C35.3545 65.79 34.4524 63.9161 33.8606 61.9177L33.8549 61.8986ZM56.3864 60.1104C56.7955 58.6944 57 57.1577 57 55.5C57 53.8423 56.7955 52.3228 56.3864 50.9414C56.0114 49.5255 55.4318 48.2995 54.6477 47.2635C53.8977 46.2275 52.9602 45.4332 51.8352 44.8806C50.7102 44.2935 49.4148 44 47.9489 44C46.5511 44 45.3068 44.2763 44.2159 44.8288C43.125 45.3814 42.1875 46.1757 41.4034 47.2117C40.6193 48.2132 40.0227 49.4219 39.6136 50.8378C39.2045 52.2538 39 53.8078 39 55.5C39 57.2267 39.2045 58.798 39.6136 60.214C40.0227 61.5953 40.6193 62.8041 41.4034 63.8401C42.1875 64.8416 43.125 65.6186 44.2159 66.1712C45.3409 66.7237 46.6023 67 48 67C49.4318 67 50.7102 66.7237 51.8352 66.1712C52.9602 65.5841 53.8977 64.7898 54.6477 63.7883C55.4318 62.7523 56.0114 61.5263 56.3864 60.1104Z" fill="#D5F257"/>
<path fill-rule="evenodd" clip-rule="evenodd" d="M16 31C17.6569 31 19 32.3431 19 34C19 35.2885 19.1364 36.395 19.3796 37.3397C19.6206 38.2463 19.9511 38.9705 20.3402 39.5507C20.7085 40.0713 21.1032 40.4207 21.5177 40.6588C21.9082 40.8697 22.3805 41 23 41C23.6494 41 24.1281 40.8679 24.5062 40.6673C24.9598 40.396 25.347 40.0318 25.6779 39.5377L25.682 39.5316L25.6861 39.5255C26.0619 38.9703 26.3822 38.2517 26.6035 37.3175L26.6105 37.2879L26.6181 37.2584C26.8652 36.3024 27 35.2213 27 34C27 32.3431 28.3431 31 30 31C31.6569 31 33 32.3431 33 34C33 35.6508 32.819 37.2324 32.4349 38.7302C32.073 40.2445 31.4951 41.6458 30.6589 42.8829C29.8323 44.115 28.7739 45.1242 27.4948 45.8705L27.4611 45.8901L27.4269 45.9089C26.0601 46.6595 24.559 47 23 47C21.4542 47 19.9691 46.6536 18.6128 45.9089L18.5956 45.8995L18.5785 45.8898C17.3074 45.17 16.2544 44.1762 15.4119 42.9731L15.3983 42.9536L15.385 42.934C14.5615 41.7175 13.9697 40.3485 13.5773 38.8673L13.575 38.8585L13.5727 38.8497C13.181 37.3339 13 35.7105 13 34C13 32.3431 14.3431 31 16 31Z" fill="#D5F257"/>
<path fill-rule="evenodd" clip-rule="evenodd" d="M66 31C67.6569 31 69 32.3431 69 34C69 35.2885 69.1364 36.395 69.3796 37.3397C69.6206 38.2463 69.9511 38.9705 70.3402 39.5507C70.7085 40.0713 71.1032 40.4207 71.5177 40.6588C71.9082 40.8697 72.3805 41 73 41C73.6494 41 74.1281 40.8679 74.5062 40.6673C74.9598 40.396 75.347 40.0318 75.6779 39.5377L75.682 39.5316L75.6861 39.5255C76.0619 38.9703 76.3822 38.2517 76.6035 37.3175L76.6105 37.2879L76.6181 37.2584C76.8652 36.3024 77 35.2213 77 34C77 32.3431 78.3431 31 80 31C81.6569 31 83 32.3431 83 34C83 35.6508 82.819 37.2324 82.4349 38.7302C82.073 40.2445 81.4951 41.6458 80.6589 42.8829C79.8323 44.115 78.7739 45.1242 77.4948 45.8705L77.4611 45.8901L77.4269 45.9089C76.0601 46.6595 74.559 47 73 47C71.4542 47 69.9691 46.6536 68.6128 45.9089L68.5956 45.8995L68.5785 45.8898C67.3074 45.17 66.2544 44.1762 65.4119 42.9731L65.3983 42.9536L65.385 42.934C64.5615 41.7175 63.9697 40.3485 63.5773 38.8673L63.575 38.8585L63.5727 38.8497C63.181 37.3339 63 35.7105 63 34C63 32.3431 64.3431 31 66 31Z" fill="#D5F257"/>
</svg>
