<svg width="96" height="88" viewBox="0 0 96 88" fill="none" xmlns="http://www.w3.org/2000/svg">
<path d="M0 25C0 11.1929 11.1929 0 25 0H71C84.8071 0 96 11.1929 96 25V63C96 76.8071 84.8071 88 71 88H0V25Z" fill="black"/>
<path fill-rule="evenodd" clip-rule="evenodd" d="M72 30C75.3137 30 78 32.6863 78 36L78 44C78 47.3137 75.3137 50 72 50C68.6863 50 66 47.3137 66 44L66 36C66 32.6863 68.6863 30 72 30Z" fill="#D5F257"/>
<path fill-rule="evenodd" clip-rule="evenodd" d="M24 30C27.3137 30 30 32.6863 30 36L30 44C30 47.3137 27.3137 50 24 50C20.6863 50 18 47.3137 18 44L18 36C18 32.6863 20.6863 30 24 30Z" fill="#D5F257"/>
<path fill-rule="evenodd" clip-rule="evenodd" d="M62.8553 54.6426C64.1574 55.6672 64.3823 57.5533 63.3576 58.8554C61.6002 61.0886 59.4056 62.8512 56.8132 64.1386L56.7814 64.1545L56.7491 64.1695C54.0865 65.4141 51.1327 66.0001 47.9499 66.0001C44.8224 66.0001 41.9045 65.4097 39.251 64.1695L39.2348 64.1619L39.2187 64.1542C36.6777 62.9294 34.4935 61.2031 32.6834 59.0029C31.6307 57.7234 31.8146 55.8328 33.0941 54.7802C34.3736 53.7275 36.2642 53.9114 37.3168 55.1909C38.5813 56.7279 40.0725 57.9023 41.8077 58.7415C43.5676 59.5609 45.5968 60.0001 47.9499 60.0001C50.3739 60.0001 52.4292 59.5593 54.1766 58.7488C55.9866 57.8445 57.4623 56.6447 58.6425 55.1449C59.6672 53.8428 61.5533 53.6179 62.8553 54.6426Z" fill="#D5F257"/>
</svg>
