<svg width="96" height="88" viewBox="0 0 96 88" fill="none" xmlns="http://www.w3.org/2000/svg">
<path d="M0 25C0 11.1929 11.1929 0 25 0H71C84.8071 0 96 11.1929 96 25V63C96 76.8071 84.8071 88 71 88H0V25Z" fill="black"/>
<path fill-rule="evenodd" clip-rule="evenodd" d="M62.8553 54.6426C64.1574 55.6672 64.3823 57.5533 63.3576 58.8554C61.6002 61.0886 59.4056 62.8512 56.8132 64.1386L56.7814 64.1545L56.7491 64.1695C54.0865 65.4141 51.1327 66.0001 47.9499 66.0001C44.8224 66.0001 41.9045 65.4097 39.251 64.1695L39.2348 64.1619L39.2187 64.1542C36.6777 62.9294 34.4935 61.2031 32.6834 59.0029C31.6307 57.7234 31.8146 55.8328 33.0941 54.7802C34.3736 53.7275 36.2642 53.9114 37.3168 55.1909C38.5813 56.7279 40.0725 57.9023 41.8077 58.7415C43.5676 59.5609 45.5968 60.0001 47.9499 60.0001C50.3739 60.0001 52.4292 59.5593 54.1766 58.7488C55.9866 57.8445 57.4623 56.6447 58.6425 55.1449C59.6672 53.8428 61.5533 53.6179 62.8553 54.6426Z" fill="#D5F257"/>
<path fill-rule="evenodd" clip-rule="evenodd" d="M17.1908 47.0535C16.6091 45.5022 17.3951 43.7729 18.9465 43.1912L27.4558 40.0002L18.9465 36.8092C17.3951 36.2274 16.6091 34.4982 17.1908 32.9468C17.7726 31.3954 19.5018 30.6094 21.0532 31.1912L34.5563 36.2548C38.017 37.5526 38.017 42.4477 34.5563 43.7455L21.0532 48.8092C19.5018 49.3909 17.7726 48.6049 17.1908 47.0535Z" fill="#D5F257"/>
<path fill-rule="evenodd" clip-rule="evenodd" d="M78.8092 47.0535C79.3909 45.5022 78.6049 43.7729 77.0535 43.1912L68.5442 40.0002L77.0535 36.8092C78.6049 36.2274 79.3909 34.4982 78.8092 32.9468C78.2274 31.3954 76.4982 30.6094 74.9468 31.1912L61.4437 36.2548C57.983 37.5526 57.983 42.4477 61.4437 43.7455L74.9468 48.8092C76.4982 49.3909 78.2274 48.6049 78.8092 47.0535Z" fill="#D5F257"/>
</svg>
