<svg width="96" height="88" viewBox="0 0 96 88" fill="none" xmlns="http://www.w3.org/2000/svg">
<path d="M0 25C0 11.1929 11.1929 0 25 0H71C84.8071 0 96 11.1929 96 25V63C96 76.8071 84.8071 88 71 88H0V25Z" fill="black"/>
<path fill-rule="evenodd" clip-rule="evenodd" d="M33.1447 54.6424C31.8426 55.6671 31.6177 57.5532 32.6424 58.8552C34.3998 61.0885 36.5944 62.8511 39.1868 64.1385L39.2186 64.1543L39.2509 64.1694C41.9135 65.4139 44.8673 66 48.0501 66C51.1776 66 54.0955 65.4096 56.749 64.1694L56.7652 64.1618L56.7813 64.1541C59.3223 62.9293 61.5065 61.203 63.3166 59.0028C64.3693 57.7233 64.1854 55.8327 62.9059 54.78C61.6264 53.7274 59.7358 53.9113 58.6832 55.1908C57.4187 56.7277 55.9275 57.9021 54.1923 58.7414C52.4324 59.5608 50.4032 60 48.0501 60C45.6261 60 43.5708 59.5592 41.8234 58.7487C40.0134 57.8444 38.5377 56.6446 37.3575 55.1448C36.3328 53.8427 34.4467 53.6178 33.1447 54.6424Z" fill="#D5F257"/>
<path fill-rule="evenodd" clip-rule="evenodd" d="M35 40C35 41.6569 33.6569 43 32 43H16C14.3431 43 13 41.6569 13 40C13 38.3431 14.3431 37 16 37H32C33.6569 37 35 38.3431 35 40Z" fill="#D5F257"/>
<path fill-rule="evenodd" clip-rule="evenodd" d="M83 40C83 41.6569 81.6569 43 80 43H64C62.3431 43 61 41.6569 61 40C61 38.3431 62.3431 37 64 37H80C81.6569 37 83 38.3431 83 40Z" fill="#D5F257"/>
</svg>
