<svg width="96" height="88" viewBox="0 0 96 88" fill="none" xmlns="http://www.w3.org/2000/svg">
<path d="M0 25C0 11.1929 11.1929 0 25 0H71C84.8071 0 96 11.1929 96 25V63C96 76.8071 84.8071 88 71 88H0V25Z" fill="black"/>
<path fill-rule="evenodd" clip-rule="evenodd" d="M83 61C83 62.6569 81.6569 64 80 64H16C14.3431 64 13 62.6569 13 61C13 59.3431 14.3431 58 16 58L80 58C81.6569 58 83 59.3431 83 61Z" fill="#D5F257"/>
<path fill-rule="evenodd" clip-rule="evenodd" d="M35 40C35 41.6569 33.6569 43 32 43H16C14.3431 43 13 41.6569 13 40C13 38.3431 14.3431 37 16 37H32C33.6569 37 35 38.3431 35 40Z" fill="#D5F257"/>
<path fill-rule="evenodd" clip-rule="evenodd" d="M83 40C83 41.6569 81.6569 43 80 43H64C62.3431 43 61 41.6569 61 40C61 38.3431 62.3431 37 64 37H80C81.6569 37 83 38.3431 83 40Z" fill="#D5F257"/>
</svg>
